# xmcd
#
# Track frame offsets:
#	150
#	20496
#	39910
#	61035
#	82074
#	107698
#	127694
#	141004
#	180501
#	198987
#	212861
#
# Disc length: 3288 seconds
#
# Revision: 0
# Processed by: cddbd v1.4PL0 Copyright (c) Steve Scherf et al.
# Submitted via: audiograbber 1.80
#
DISCID=8b0cd60b
DTITLE=Chuck LeMonds - Hearts Of 1905
DYEAR=1900
DGENRE=
TTITLE0=Words Of The Wise
TTITLE1=Cape Girardeau Blues
TTITLE2=Angel
TTITLE3=Reaching The Sky
TTITLE4=Hearts Of 1905
TTITLE5=Walk Down The Road
TTITLE6=Johnny Said
TTITLE7=Zimphira The Gypsy
TTITLE8=Colour Of Your Eyes
TTITLE9=The Dirt Song
TTITLE10=Talking Interdiction Blues
EXTD=
EXTT0=
EXTT1=
EXTT2=
EXTT3=
EXTT4=
EXTT5=
EXTT6=
EXTT7=
EXTT8=
EXTT9=
EXTT10=
PLAYORDER=
